<svg xmlns="http://www.w3.org/2000/svg" width="20.38" height="20.376" viewBox="0 0 20.38 20.376">  
  <path id="Forma_1" fill="#ff3a59" data-name="Forma 1" class="cls-1" d="M1618.92,103.119a2.041,2.041,0,1,0,2.04,2.04A2.048,2.048,0,0,0,1618.92,103.119ZM1612.8,86.8v2.04h2.04l3.67,7.752-1.43,2.448a3.683,3.683,0,0,0-.2,1.02,2.047,2.047,0,0,0,2.04,2.039h12.24V100.06h-11.83a0.227,0.227,0,0,1-.21-0.2v-0.1l0.92-1.734h7.55a1.843,1.843,0,0,0,1.73-1.02l3.68-6.63a0.567,0.567,0,0,0,.2-0.51,0.965,0.965,0,0,0-1.02-1.02h-15.1l-0.91-2.04h-3.37Zm16.32,16.32a2.041,2.041,0,1,0,2.04,2.04A2.048,2.048,0,0,0,1629.12,103.119Z" transform="translate(-1612.81 -86.813)"/>
</svg>
