<?xml version="1.0" encoding="utf-8"?>
<!-- Generator: Adobe Illustrator 23.1.0, SVG Export Plug-In . SVG Version: 6.00 Build 0)  -->
<svg version="1.1" id="Layer_1" xmlns="http://www.w3.org/2000/svg" xmlns:xlink="http://www.w3.org/1999/xlink" x="0px" y="0px"
	 viewBox="0 0 1000 1000" style="enable-background:new 0 0 1000 1000;" xml:space="preserve">
<style type="text/css">
	.st0{fill:#FF4848;}
</style>
<g>
	<path class="st0" d="M357.9,919.9c-25.1,0-45.4-20.4-45.4-45.4V128.3c0-25.1,20.4-45.4,45.4-45.4H667c25.1,0,45.4,20.4,45.4,45.4
		v746.1c0,25.1-20.4,45.4-45.4,45.4H357.9z"/>
	<path d="M667,95.4c18.2,0,32.9,14.8,32.9,32.9v746.1c0,18.2-14.8,32.9-32.9,32.9H357.9c-18.2,0-32.9-14.8-32.9-32.9V128.3
		c0-18.2,14.8-32.9,32.9-32.9H667 M667,70.4H357.9c-32,0-57.9,26-57.9,57.9v746.1c0,32,26,57.9,57.9,57.9H667
		c32,0,57.9-26,57.9-57.9V128.3C724.9,96.4,698.9,70.4,667,70.4L667,70.4z"/>
</g>
</svg>
