<svg version="1.1" id="Capa_1" xmlns="http://www.w3.org/2000/svg" xmlns:xlink="http://www.w3.org/1999/xlink" x="0px" y="0px" viewBox="0 0 512 512" style="enable-background:new 0 0 512 512;" xml:space="preserve">
	<g>
		<g>
			<path fill="#000000"
				d="M344,289h-23v-30h23c8.284,0,15-6.716,15-15s-6.716-15-15-15h-23v-5c0-8.284-6.716-15-15-15h-5v-11
			c0-24.813-20.187-45-45-45s-45,20.187-45,45v11h-5c-8.284,0-15,6.716-15,15v5h-23c-8.284,0-15,6.716-15,15s6.716,15,15,15h23v30
			h-23c-8.284,0-15,6.716-15,15s6.716,15,15,15h28.007c9.815,23.467,33.007,40,59.993,40c26.986,0,50.177-16.533,59.993-40H344
			c8.284,0,15-6.716,15-15S352.284,289,344,289z M241,325.616c-11.814-5.628-20-17.683-20-31.616v-55c7.304,0,12.911,0,20,0V325.616
			z M241,209v-11c0-8.271,6.729-15,15-15s15,6.729,15,15v11H241z M291,294c0,13.933-8.186,25.988-20,31.616V239
			c7.088,0,12.696,0,20,0V294z"/>
		</g>
	</g>
	<g>
		<g>
			<path fill="#000000"
				d="M467,51H45C20.187,51,0,71.187,0,96v320c0,24.813,20.187,45,45,45h422c24.813,0,45-20.187,45-45V96
			C512,71.187,491.813,51,467,51z M482,416c0,8.271-6.729,15-15,15H45c-8.271,0-15-6.729-15-15V96c0-8.271,6.729-15,15-15h422
			c8.271,0,15,6.729,15,15V416z"/>
		</g>
	</g>

</svg>
