<svg xmlns="http://www.w3.org/2000/svg" width="0" height="0">

	<defs>
		<symbol id="buy-now" viewBox="0 0 510 510">
			<title>buy-now</title>
			<path d="M153,408c-28.05,0-51,22.95-51,51s22.95,51,51,51s51-22.95,51-51S181.05,408,153,408z M0,0v51h51l91.8,193.8L107.1,306
			c-2.55,7.65-5.1,17.85-5.1,25.5c0,28.05,22.95,51,51,51h306v-51H163.2c-2.55,0-5.1-2.55-5.1-5.1v-2.551l22.95-43.35h188.7
			c20.4,0,35.7-10.2,43.35-25.5L504.9,89.25c5.1-5.1,5.1-7.65,5.1-12.75c0-15.3-10.2-25.5-25.5-25.5H107.1L84.15,0H0z M408,408
			c-28.05,0-51,22.95-51,51s22.95,51,51,51s51-22.95,51-51S436.05,408,408,408z" />
		</symbol>

		<symbol id="add-cart" viewBox="0 0 435.104 435.104">
			<title>add-cart</title>
			<g>
				<circle cx="154.112" cy="377.684" r="52.736" />
				<path d="M323.072,324.436L323.072,324.436c-29.267-2.88-55.327,18.51-58.207,47.777c-2.88,29.267,18.51,55.327,47.777,58.207
				c3.468,0.341,6.962,0.341,10.43,0c29.267-2.88,50.657-28.94,47.777-58.207C368.361,346.928,348.356,326.924,323.072,324.436z" />
				<path d="M431.616,123.732c-2.62-3.923-7.059-6.239-11.776-6.144h-58.368v-1.024C361.476,54.637,311.278,4.432,249.351,4.428
				C187.425,4.424,137.22,54.622,137.216,116.549c0,0.005,0,0.01,0,0.015v1.024h-43.52L78.848,50.004
				C77.199,43.129,71.07,38.268,64,38.228H0v30.72h51.712l47.616,218.624c1.257,7.188,7.552,12.397,14.848,12.288h267.776
				c7.07-0.041,13.198-4.901,14.848-11.776l37.888-151.552C435.799,132.019,434.654,127.248,431.616,123.732z M249.344,197.972
				c-44.96,0-81.408-36.448-81.408-81.408s36.448-81.408,81.408-81.408s81.408,36.448,81.408,81.408
				C330.473,161.408,294.188,197.692,249.344,197.972z" />
				<path d="M237.056,118.1l-28.16-28.672l-22.016,21.504l38.912,39.424c2.836,2.894,6.7,4.55,10.752,4.608
				c3.999,0.196,7.897-1.289,10.752-4.096l64.512-60.928l-20.992-22.528L237.056,118.1z" />
			</g>
		</symbol>


		<symbol id="star-yellow" viewBox="0 0 47.94 47.94">
			<title>star-yellow</title>
			<path style="fill:#f5861f;" d="M26.285,2.486l5.407,10.956c0.376,0.762,1.103,1.29,1.944,1.412l12.091,1.757
	c2.118,0.308,2.963,2.91,1.431,4.403l-8.749,8.528c-0.608,0.593-0.886,1.448-0.742,2.285l2.065,12.042
	c0.362,2.109-1.852,3.717-3.746,2.722l-10.814-5.685c-0.752-0.395-1.651-0.395-2.403,0l-10.814,5.685
	c-1.894,0.996-4.108-0.613-3.746-2.722l2.065-12.042c0.144-0.837-0.134-1.692-0.742-2.285l-8.749-8.528
	c-1.532-1.494-0.687-4.096,1.431-4.403l12.091-1.757c0.841-0.122,1.568-0.65,1.944-1.412l5.407-10.956
	C22.602,0.567,25.338,0.567,26.285,2.486z" />
		</symbol>

		<symbol id="language" viewBox="0 0 511.999 511.999">
			<title>Language</title>
			<path d="M436.921,75.079C389.413,27.571,326.51,1.066,259.464,0.18C258.296,0.074,257.137,0,255.999,0s-2.297,0.074-3.465,0.18
			C185.488,1.065,122.585,27.57,75.077,75.078C26.752,123.405,0.138,187.657,0.138,255.999s26.614,132.595,74.94,180.921
			c47.508,47.508,110.41,74.013,177.457,74.898c1.168,0.107,2.327,0.18,3.464,0.18c1.138,0,2.297-0.074,3.465-0.18
			c67.047-0.885,129.95-27.39,177.457-74.898c48.325-48.325,74.939-112.577,74.939-180.921
			C511.861,187.657,485.247,123.405,436.921,75.079z M96.586,96.587c27.181-27.181,60.086-46.552,95.992-57.018
			c-8.093,9.317-15.96,20.033-23.282,31.908c-9.339,15.146-17.425,31.562-24.196,48.919H75.865
			C82.165,112.063,89.071,104.102,96.586,96.587z M56.486,150.813h78.373c-8.15,28.522-12.97,58.908-14.161,89.978H31.071
			C33.176,208.987,41.865,178.465,56.486,150.813z M56.487,361.186c-14.623-27.652-23.312-58.174-25.417-89.978h89.627
			c1.191,31.071,6.011,61.457,14.161,89.978H56.487z M96.587,415.412c-7.517-7.515-14.423-15.475-20.722-23.809h69.236
			c6.771,17.357,14.856,33.773,24.196,48.919c7.322,11.875,15.189,22.591,23.282,31.908
			C156.674,461.964,123.769,442.593,96.587,415.412z M240.79,475.322c-12.671-8.29-29.685-24.946-45.605-50.764
			c-6.385-10.354-12.124-21.382-17.197-32.954h62.801V475.322z M240.79,361.186h-74.195c-8.888-28.182-14.163-58.651-15.459-89.978
			h89.654V361.186z M240.79,240.791h-89.654c1.295-31.327,6.57-61.797,15.459-89.978h74.195V240.791z M240.79,120.395h-62.801
			c5.073-11.572,10.812-22.6,17.197-32.954c15.919-25.818,32.934-42.475,45.605-50.764V120.395z M455.512,150.813
			c14.623,27.653,23.311,58.174,25.416,89.978H391.3c-1.191-31.071-6.011-61.457-14.161-89.978H455.512z M415.413,96.587
			c7.515,7.515,14.421,15.476,20.721,23.809h-69.235c-6.771-17.357-14.856-33.773-24.196-48.919
			c-7.322-11.875-15.188-22.591-23.282-31.908C355.326,50.035,388.231,69.406,415.413,96.587z M271.208,36.677
			c12.671,8.29,29.685,24.946,45.605,50.764c6.385,10.354,12.124,21.382,17.197,32.954h-62.801V36.677z M271.208,150.813h74.195
			c8.889,28.182,14.164,58.653,15.459,89.978h-89.654V150.813z M360.861,271.208c-1.295,31.327-6.57,61.797-15.459,89.978h-74.195
			v-89.978H360.861z M271.208,475.322v-83.718h62.801c-5.073,11.572-10.812,22.6-17.197,32.954
			C300.893,450.377,283.879,467.032,271.208,475.322z M415.413,415.413c-27.182,27.181-60.086,46.551-95.992,57.018
			c8.093-9.317,15.96-20.033,23.282-31.908c9.339-15.146,17.425-31.562,24.196-48.919h69.235
			C429.835,399.937,422.928,407.898,415.413,415.413z M455.512,361.186h-78.373c8.15-28.521,12.971-58.907,14.161-89.978h89.627
			C478.822,303.012,470.133,333.534,455.512,361.186z" />
		</symbol>
		<symbol id="currency" viewBox="0 0 512 512">
			<title>Currency</title>

			<g>
				<g>
					<path d="M437.02,74.98C388.668,26.628,324.38,0,256,0S123.332,26.628,74.98,74.98C26.629,123.332,0,187.62,0,256
			s26.629,132.668,74.98,181.02C123.332,485.372,187.62,512,256,512s132.668-26.628,181.02-74.98
			C485.371,388.668,512,324.38,512,256S485.371,123.332,437.02,74.98z M256,482C131.383,482,30,380.617,30,256S131.383,30,256,30
			s226,101.383,226,226S380.617,482,256,482z" />
				</g>
			</g>
			<g>
				<g>
					<path d="M272.067,241h-32.134c-18.307,0-33.2-14.893-33.2-33.199c0-18.307,14.894-33.2,33.2-33.2H304.2c8.284,0,15-6.716,15-15
			s-6.716-15-15-15H271v-33.2c0-8.284-6.716-15-15-15s-15,6.716-15,15v33.2h-1.066c-34.849,0-63.2,28.352-63.2,63.2
			c0,34.848,28.352,63.199,63.2,63.199h32.134c18.306,0,33.199,14.894,33.199,33.2c0,18.306-14.893,33.2-33.199,33.2h-64.267
			c-8.284,0-15,6.716-15,15s6.716,15,15,15H241v33.201c0,8.284,6.716,15,15,15s15-6.716,15-15V367.4h1.067
			c34.848,0,63.199-28.352,63.199-63.2S306.915,241,272.067,241z" />
				</g>
			</g>


		</symbol>
		<symbol id="login" viewBox="0 0 17.22 17.219">
			<title>login</title>
			<path d="M1507.71,19.576v1.009c-0.03.221-.05,0.442-0.08,0.663a8.606,8.606,0,0,1-7.04,7.313c-0.33.058-.66,0.071-0.98,0.129h-1.01a1.413,1.413,0,0,0-.15-0.028,8.418,8.418,0,0,1-3.99-1.336,8.59,8.59,0,0,1-3.8-8.87,8.6,8.6,0,0,1,9.63-6.9,8.2,8.2,0,0,1,4.48,2.048,8.51,8.51,0,0,1,2.81,4.993C1507.64,18.923,1507.65,19.252,1507.71,19.576Zm-10.69,1.48a3.533,3.533,0,1,1,4.17,0,6.591,6.591,0,0,1,3.94,3.629,7.588,7.588,0,1,0-12.05-.008A6.639,6.639,0,0,1,1497.02,21.056Zm2.08,6.626a7.053,7.053,0,0,0,1.11-.082,7.541,7.541,0,0,0,4.07-1.969,0.157,0.157,0,0,0,.05-0.2,5.514,5.514,0,0,0-6.28-3.592,5.437,5.437,0,0,0-4.17,3.586,0.16,0.16,0,0,0,.04.2A7.586,7.586,0,0,0,1499.1,27.682Zm-2.52-9.48a2.52,2.52,0,1,0,2.52-2.526A2.54,2.54,0,0,0,1496.58,18.2Z" transform="translate(-1490.5 -11.469)" />


		</symbol>
		<symbol id="savesearch" viewBox="0 0 484.702 484.703">
			<title>savesearch</title>
			<g>
				<path d="M451.655,414.239H33.048C14.798,414.239,0,428.659,0,446.91c0,18.25,14.798,32.67,33.048,32.67h418.607
			c18.249,0,33.047-14.42,33.047-32.67C484.702,428.659,469.904,414.239,451.655,414.239z" />
				<path d="M217.351,370.521c13.862,19.657,37.98,17.842,50.002,0c30.482-45.242,126.299-177.947,126.299-177.947
			c7.233-10.19,6.901-23.929-0.812-33.762c-7.716-9.834-20.983-13.421-32.602-8.819l-73.499,29.111l9.703-143.854
			c0.531-7.827-2.223-15.52-7.6-21.238c-5.376-5.712-12.887-8.935-20.729-8.889h-51.525c-7.844-0.046-15.354,3.176-20.73,8.889
			c-5.376,5.718-8.13,13.412-7.6,21.238l9.704,143.854l-73.499-29.111c-11.617-4.602-24.886-1.015-32.602,8.819
			c-7.713,9.833-8.045,23.571-0.811,33.762C91.052,192.573,185.911,325.939,217.351,370.521z" />
			</g>
		</symbol>
		<symbol id="gridview" viewBox="0 0 444 444">
			<title>gridview</title>
			<path d="m7 0h181c3.867188 0 7 3.132812 7 7v181c0 3.867188-3.132812 7-7 7h-181c-3.867188 0-7-3.132812-7-7v-181c0-3.867188 3.132812-7 7-7zm0 0" />
			<path d="m256 0h181c3.867188 0 7 3.132812 7 7v181c0 3.867188-3.132812 7-7 7h-181c-3.867188 0-7-3.132812-7-7v-181c0-3.867188 3.132812-7 7-7zm0 0" />
			<path d="m7 249h181c3.867188 0 7 3.132812 7 7v181c0 3.867188-3.132812 7-7 7h-181c-3.867188 0-7-3.132812-7-7v-181c0-3.867188 3.132812-7 7-7zm0 0" />
			<path d="m256 249h181c3.867188 0 7 3.132812 7 7v181c0 3.867188-3.132812 7-7 7h-181c-3.867188 0-7-3.132812-7-7v-181c0-3.867188 3.132812-7 7-7zm0 0" />
		</symbol>
		<symbol id="listview" viewBox="0 0 511.626 511.627">
			<title>listview</title>
			<g>
				<path d="M118.771,200.999H27.406c-7.611,0-14.084,2.664-19.414,7.994C2.663,214.32,0,220.791,0,228.407v54.823
			c0,7.61,2.663,14.078,7.992,19.406c5.33,5.329,11.803,7.994,19.414,7.994h91.365c7.611,0,14.084-2.665,19.414-7.994
			c5.33-5.328,7.992-11.796,7.992-19.406v-54.823c0-7.616-2.662-14.087-7.992-19.414S126.382,200.999,118.771,200.999z" />
				<path d="M118.771,54.814H27.406c-7.611,0-14.084,2.663-19.414,7.993C2.663,68.137,0,74.61,0,82.221v54.821
			c0,7.616,2.663,14.091,7.992,19.417c5.33,5.327,11.803,7.994,19.414,7.994h91.365c7.611,0,14.084-2.667,19.414-7.994
			s7.992-11.798,7.992-19.414V82.225c0-7.611-2.662-14.084-7.992-19.417C132.855,57.48,126.382,54.814,118.771,54.814z" />
				<path d="M118.771,347.177H27.406c-7.611,0-14.084,2.662-19.414,7.994C2.663,360.502,0,366.974,0,374.585v54.826
			c0,7.61,2.663,14.086,7.992,19.41c5.33,5.332,11.803,7.991,19.414,7.991h91.365c7.611,0,14.084-2.663,19.414-7.991
			c5.33-5.324,7.992-11.8,7.992-19.41v-54.826c0-7.611-2.662-14.083-7.992-19.411S126.382,347.177,118.771,347.177z" />
				<path d="M484.215,200.999H210.131c-7.614,0-14.084,2.664-19.414,7.994s-7.992,11.798-7.992,19.414v54.823
			c0,7.61,2.662,14.078,7.992,19.406c5.327,5.329,11.8,7.994,19.414,7.994h274.091c7.61,0,14.085-2.665,19.41-7.994
			c5.332-5.328,7.994-11.796,7.994-19.406v-54.823c0-7.616-2.662-14.087-7.997-19.414
			C498.3,203.663,491.833,200.999,484.215,200.999z" />
				<path d="M484.215,347.177H210.131c-7.614,0-14.084,2.662-19.414,7.994c-5.33,5.331-7.992,11.8-7.992,19.41v54.823
			c0,7.611,2.662,14.089,7.992,19.417c5.327,5.328,11.8,7.987,19.414,7.987h274.091c7.61,0,14.085-2.662,19.41-7.987
			c5.332-5.331,7.994-11.806,7.994-19.417v-54.823c0-7.61-2.662-14.085-7.997-19.41C498.3,349.846,491.833,347.177,484.215,347.177z
			" />
				<path d="M503.629,62.811c-5.329-5.327-11.797-7.993-19.414-7.993H210.131c-7.614,0-14.084,2.663-19.414,7.993
			s-7.992,11.803-7.992,19.414v54.821c0,7.616,2.662,14.083,7.992,19.414c5.327,5.327,11.8,7.994,19.414,7.994h274.091
			c7.61,0,14.078-2.667,19.41-7.994s7.994-11.798,7.994-19.414V82.225C511.626,74.613,508.964,68.141,503.629,62.811z" />
			</g>
		</symbol>


		<symbol id="tabs-view" viewBox="0 0 469.333 469.333">
			<title>tabs-view</title>
			<path d="M426.667,42.667h-384C19.093,42.667,0,61.76,0,85.333V384c0,23.573,19.093,42.667,42.667,42.667h384
			c23.573,0,42.667-19.093,42.667-42.667V85.333C469.333,61.76,450.24,42.667,426.667,42.667z M426.667,384h-384V85.333H256v85.333
			h170.667V384z" />

		</symbol>
		<symbol id="filter" viewBox="0 0 402.577 402.577">
			<title>filter</title>
			<path d="M400.858,11.427c-3.241-7.421-8.85-11.132-16.854-11.136H18.564c-7.993,0-13.61,3.715-16.846,11.136
		c-3.234,7.801-1.903,14.467,3.999,19.985l140.757,140.753v138.755c0,4.955,1.809,9.232,5.424,12.854l73.085,73.083
		c3.429,3.614,7.71,5.428,12.851,5.428c2.282,0,4.66-0.479,7.135-1.43c7.426-3.238,11.14-8.851,11.14-16.845V172.166L396.861,31.413
		C402.765,25.895,404.093,19.231,400.858,11.427z" />
		</symbol>
		<symbol id="rating-star" viewBox="0 0 152 145">
			<title>rating-star</title>
			<path class="cls-1" d="M599,2002l25.048,45.57,50.941,9.82-35.461,37.97,6.436,51.64L599,2124.9,552.035,2147l6.437-51.64-35.462-37.97,50.943-9.82L599,2002m-16.186,57.76-33.112,6.38,23.05,24.68-4.183,33.56,30.527-14.36,30.526,14.36-4.182-33.56,23.049-24.68-33.112-6.38L599.1,2030.14l-16.282,29.62" transform="translate(-523 -2002)" />
		</symbol>

		<symbol id="heart" viewBox="0 0 471.701 471.701">
			<title>heart</title>
			<path d="M433.601,67.001c-24.7-24.7-57.4-38.2-92.3-38.2s-67.7,13.6-92.4,38.3l-12.9,12.9l-13.1-13.1
		c-24.7-24.7-57.6-38.4-92.5-38.4c-34.8,0-67.6,13.6-92.2,38.2c-24.7,24.7-38.3,57.5-38.2,92.4c0,34.9,13.7,67.6,38.4,92.3
		l187.8,187.8c2.6,2.6,6.1,4,9.5,4c3.4,0,6.9-1.3,9.5-3.9l188.2-187.5c24.7-24.7,38.3-57.5,38.3-92.4
		C471.801,124.501,458.301,91.701,433.601,67.001z M414.401,232.701l-178.7,178l-178.3-178.3c-19.6-19.6-30.4-45.6-30.4-73.3
		s10.7-53.7,30.3-73.2c19.5-19.5,45.5-30.3,73.1-30.3c27.7,0,53.8,10.8,73.4,30.4l22.6,22.6c5.3,5.3,13.8,5.3,19.1,0l22.4-22.4
		c19.6-19.6,45.7-30.4,73.3-30.4c27.6,0,53.6,10.8,73.2,30.3c19.6,19.6,30.3,45.6,30.3,73.3
		C444.801,187.101,434.001,213.101,414.401,232.701z" />
		</symbol>
		<symbol id="report" viewBox="0 -21 511.99935 511">
			<title>report</title>
			<path d="m398.066406 270.835938c8.273438-1.277344 16.734375.875 24.460938 4.097656 7.730468 3.226562 14.976562 7.515625 22.671875 10.816406 7.773437 3.335938 15.957031 5.5625 24.191406 7.425781 7.828125 1.777344 16.394531 4.21875 24.433594 2.578125 9.105469-1.859375 16.632812-9.832031 17.960937-19.03125 1.328125-9.195312-3.632812-18.976562-11.84375-23.332031-7.144531-3.792969-15.675781-3.519531-23.574218-5.289063-9.253907-2.070312-17.585938-6.945312-26.113282-11.09375-8.589844-4.175781-17.566406-7.664062-26.886718-9.8125-8.390626-1.933593-16.753907-2.285156-25.320313-2.285156v-24.238281c0-.082031 0-.15625 0-.234375l19.621094-8.214844c30.917969-12.9375 53.941406-38.828125 63.175781-71.035156 2.308594-8.0625 5.472656-15.304688 9.398438-21.523438 0 0 12.300781-19.496093 12.300781-19.496093 6.6875-10.597657 3.054687-25.667969-7.820313-32.015625-10.324218-6.023438-24.578125-2.519532-30.933594 7.558594l-12.304687 19.496093c-6.242187 9.894531-11.1875 21.117188-14.695313 33.351563-5.378906 18.765625-18.796874 33.851562-36.8125 41.390625l-12.667968 5.300781c-6.011719-11.902344-14.417969-22.613281-24.917969-31.492188-1.027344-27.6875-17.089844-52.304687-41.65625-68.457031-1.515625-30.429687-31.683594-54.800781-68.550781-54.800781-36.867188 0-67.039063 24.367188-68.550782 54.800781-24.570312 16.152344-40.632812 40.773438-41.65625 68.464844-9.59375 8.148437-17.503906 17.984375-23.414062 28.890625l-6.464844-2.707031c-18.015625-7.539063-31.433594-22.625-36.8125-41.390625-3.507812-12.234375-8.453125-23.457032-14.695312-33.351563l-12.300782-19.496093c-6.742187-10.683594-20.921874-13.890626-31.609374-7.148438-10.683594 6.742188-13.890626 20.917969-7.148438 31.605469l12.300781 19.496093c3.929688 6.222657 7.089844 13.464844 9.402344 21.523438 9.230469 32.207031 32.257813 58.101562 63.171875 71.039062l11.976562 5.011719c-.039062 1.140625-.058593 27.746094-.058593 27.746094-15.300781.582031-30.414063 4.652344-43.9375 11.855469l-9.382813 4.996094c-4.910156 2.617187-10.167968 4.476562-15.628906 5.535156l-18.816406 3.644531c-12.402344 2.398437-20.539063 14.445313-18.136719 26.847656 2.082031 10.757813 11.535156 18.5625 22.476563 18.5625 7.652343 0 15.691406-2.609375 23.191406-4.0625 9.941406-1.925781 19.515625-5.316406 28.457031-10.078125l9.382813-5c6.914062-3.679687 14.585937-5.871094 22.394531-6.414062 0 0 .042969 31.203125.125 33.445312l-12.042969 5.039063c-31.433594 13.152343-55.316406 40.6875-63.886719 73.65625-1.496093 5.742187-4.015625 11.421875-7.496093 16.871093 0 0-15.488282 24.261719-15.492188 24.269532-7.0625 11.066406-3.097656 26.300781 8.476562 32.519531 10.421876 5.59375 23.808594 2.074219 30.152344-7.863281l15.492188-24.269532c6.066406-9.503906 10.515625-19.597656 13.21875-29.992187 4.992187-19.207031 18.910156-35.25 37.226562-42.917969l2.113282-.882812c3.921874 12.953125 9.277343 25.480468 15.988281 37.316406 15.621093 27.53125 38.238281 50.664062 65.410156 66.902344 34.238281 20.460937 78.792969 20.535156 113.152344 0 27.171875-16.238282 49.789062-39.371094 65.410156-66.902344 7.210937-12.707031 12.847656-26.214844 16.832031-40.1875l8.976563 3.753906c18.316406 7.667969 32.234375 23.710938 37.226562 42.917969 2.703125 10.398437 7.152344 20.488281 13.21875 29.992187l15.492188 24.269532c5.605469 8.785156 17.078125 12.761718 26.933593 9.285156 13.679688-4.824219 19.484376-21.734375 11.695313-33.941406l-15.492187-24.269532c-3.480469-5.449218-6-11.125-7.496094-16.871093-8.570313-32.96875-32.457032-60.503907-63.886719-73.65625l-19.660156-8.226563c.195312-10.09375.023437-20.199218.054687-30.292968zm44.570313-20.753907 9.382812 4.996094c6.230469 3.320313 12.902344 5.679687 19.828125 7.023437l18.816406 3.640626c4.285157.832031 7.09375 4.988281 6.265626 9.273437-.792969 4.089844-5.148438 7.0625-9.273438 6.261719l-18.816406-3.644532c-8.472656-1.640624-16.636719-4.527343-24.257813-8.589843l-9.382812-4.996094c-11.480469-6.113281-24.261719-8.3125-37.152344-8.3125v-15.824219c1.285156 0 24.847656-1.746094 44.589844 10.171875zm-36.867188-86.292969c22.238281-9.308593 38.800781-27.929687 45.441407-51.09375 3.117187-10.871093 7.476562-20.789062 12.960937-29.480468l12.304687-19.496094c2.328126-3.6875 7.222657-4.796875 10.910157-2.46875 3.597656 2.269531 4.726562 7.339844 2.46875 10.910156l-12.300781 19.496094c-4.683594 7.425781-8.429688 15.96875-11.132813 25.394531-7.96875 27.808594-27.851563 50.164063-54.542969 61.332031l-15.082031 6.3125c-.839844-5.316406-2.097656-10.523437-3.753906-15.582031zm-153.585937-148.289062c24.449218 0 45.125 12.949219 51.546875 30.589844-15.390625-6.75-32.9375-10.578125-51.546875-10.578125-18.605469 0-36.152344 3.828125-51.542969 10.578125 6.417969-17.640625 27.097656-30.589844 51.542969-30.589844zm0 35.015625c46.40625 0 85.171875 26.636719 93.570312 61.769531-14.757812-8.140625-31.261718-12.386718-48.480468-12.386718h-83.003907c-4.144531 0-7.503906 3.359374-7.503906 7.503906 0 4.140625 3.359375 7.5 7.503906 7.5h83.003907c19.1875 0 37.324218 6.1875 52.453124 17.898437 13.742188 10.640625 14.648438 26.101563 10.914063 37.023438-4.847656 14.183593-17.566406 23.347656-32.402344 23.347656h-152.046875c-18.105468 0-28.535156-12.03125-32.265625-23.289063-3.738281-11.300781-2.539062-27.242187 12.046875-38.089843 7.832032-5.824219 16.511719-10.226563 25.792969-13.09375 3.960937-1.21875 6.175781-5.417969 4.957031-9.378907-1.222656-3.957031-5.421875-6.175781-9.378906-4.953124-6.519531 2.011718-12.785156 4.667968-18.730469 7.941406 8.390625-35.144532 47.15625-61.792969 93.570313-61.792969zm-151.984375 127.871094c-26.695313-11.171875-46.574219-33.527344-54.542969-61.335938-2.703125-9.425781-6.449219-17.96875-11.136719-25.394531 0 0-12.285156-19.472656-12.300781-19.496094-2.300781-3.644531-1.167969-8.617187 2.46875-10.910156 3.691406-2.328125 8.585938-1.222656 10.914062 2.464844l12.300782 19.496094c5.484375 8.695312 9.847656 18.613281 12.964844 29.480468 6.636718 23.167969 23.199218 41.789063 45.4375 51.097656l6.101562 2.550782c-1.820312 4.992187-3.246094 10.128906-4.261719 15.371094zm-23.320313 85.660156-9.386718 4.996094c-7.617188 4.0625-15.78125 6.949219-24.257813 8.589843-3.527344.683594-17.136719 3.792969-20.335937 3.792969-3.773438 0-7.03125-2.695312-7.75-6.410156-.832032-4.285156 1.980468-8.441406 6.261718-9.273437l18.816406-3.640626c6.925782-1.34375 13.597657-3.703124 19.828126-7.023437l9.382812-4.996094c11.359375-6.050781 24.035156-9.507812 36.886719-10.082031v15.839844c-10.261719.5625-20.367188 3.371094-29.445313 8.207031zm29.464844 73.824219c-17.902344 8.34375-32.546875 21.109375-41.132812 39.433594-2.027344 4.328124-3.660157 8.839843-4.859376 13.464843-2.308593 8.875-6.125 17.519531-11.34375 25.695313 0 0-15.472656 24.242187-15.492187 24.269531-2.296875 3.597656-7.332031 4.707031-10.925781 2.414063-3.597656-2.296876-4.703125-7.335938-2.414063-10.925782l15.492188-24.269531c4.328125-6.777344 7.476562-13.898437 9.371093-21.167969 7.398438-28.460937 28.019532-52.234375 55.160157-63.59375l7.511719-3.144531c.664062 5.382813 1.570312 10.726563 2.707031 16.019531-1.375.578125-2.734375 1.179688-4.074219 1.804688zm254.777344 42.785156c-14.339844 25.277344-35.109375 46.519531-60.054688 61.429688-12.84375 7.675781-27.015625 12.078124-41.378906 13.214843v-49.074219c0-4.144531-3.359375-7.503906-7.5-7.503906-4.144531 0-7.503906 3.359375-7.503906 7.503906v49.074219c-14.363282-1.132812-28.535156-5.539062-41.378906-13.214843-24.945313-14.910157-45.714844-36.152344-60.054688-61.429688-14.34375-25.277344-21.921875-54-21.921875-83.066406v-96.917969c0-11.617187 2.269531-22.820313 6.5625-33.125.425781 2.355469 1.023437 4.707031 1.796875 7.046875 6.75 20.398438 25.007812 33.578125 46.503906 33.578125h68.492188v163.148437c0 4.144532 3.359375 7.503907 7.503906 7.503907 4.140625 0 7.5-3.359375 7.5-7.503907v-163.148437h68.550781c21.351563 0 39.644531-13.148437 46.597657-33.496094.761718-2.222656 1.355468-4.460937 1.796874-6.699219 4.195313 10.199219 6.414063 21.265626 6.414063 32.695313v96.917969c-.003906 29.066406-7.582031 57.789062-21.925781 83.066406zm50.757812-57.464844c27.136719 11.359375 47.757813 35.132813 55.160156 63.597656 1.890626 7.265626 5.042969 14.386719 9.371094 21.164063 0 0 15.476563 24.25 15.488282 24.269531 2.253906 3.53125 1.105468 8.683594-2.410157 10.925782-3.605469 2.300781-8.609375 1.214843-10.925781-2.410157l-15.492188-24.269531c-5.21875-8.179688-9.035156-16.824219-11.34375-25.699219-6.164062-23.710937-23.34375-43.515625-45.957031-52.980469l-11.207031-4.6875c1.054688-5.332031 1.875-10.714843 2.453125-16.125zm0 0" />
		</symbol>
		<symbol id="send-msg" viewBox="0 0 483.3 483.3">
			<title>send-msg</title>
			<g>
				<path d="M424.3,57.75H59.1c-32.6,0-59.1,26.5-59.1,59.1v249.6c0,32.6,26.5,59.1,59.1,59.1h365.1c32.6,0,59.1-26.5,59.1-59.1
			v-249.5C483.4,84.35,456.9,57.75,424.3,57.75z M456.4,366.45c0,17.7-14.4,32.1-32.1,32.1H59.1c-17.7,0-32.1-14.4-32.1-32.1v-249.5
			c0-17.7,14.4-32.1,32.1-32.1h365.1c17.7,0,32.1,14.4,32.1,32.1v249.5H456.4z" />
				<path d="M304.8,238.55l118.2-106c5.5-5,6-13.5,1-19.1c-5-5.5-13.5-6-19.1-1l-163,146.3l-31.8-28.4c-0.1-0.1-0.2-0.2-0.2-0.3
			c-0.7-0.7-1.4-1.3-2.2-1.9L78.3,112.35c-5.6-5-14.1-4.5-19.1,1.1c-5,5.6-4.5,14.1,1.1,19.1l119.6,106.9L60.8,350.95
			c-5.4,5.1-5.7,13.6-0.6,19.1c2.7,2.8,6.3,4.3,9.9,4.3c3.3,0,6.6-1.2,9.2-3.6l120.9-113.1l32.8,29.3c2.6,2.3,5.8,3.4,9,3.4
			c3.2,0,6.5-1.2,9-3.5l33.7-30.2l120.2,114.2c2.6,2.5,6,3.7,9.3,3.7c3.6,0,7.1-1.4,9.8-4.2c5.1-5.4,4.9-14-0.5-19.1L304.8,238.55z" />
			</g>
		</symbol>

		<symbol id="share" viewBox="0 0 481.6 481.6">
			<title>share</title>
			<path d="M381.6,309.4c-27.7,0-52.4,13.2-68.2,33.6l-132.3-73.9c3.1-8.9,4.8-18.5,4.8-28.4c0-10-1.7-19.5-4.9-28.5l132.2-73.8
		c15.7,20.5,40.5,33.8,68.3,33.8c47.4,0,86.1-38.6,86.1-86.1S429,0,381.5,0s-86.1,38.6-86.1,86.1c0,10,1.7,19.6,4.9,28.5
		l-132.1,73.8c-15.7-20.6-40.5-33.8-68.3-33.8c-47.4,0-86.1,38.6-86.1,86.1s38.7,86.1,86.2,86.1c27.8,0,52.6-13.3,68.4-33.9
		l132.2,73.9c-3.2,9-5,18.7-5,28.7c0,47.4,38.6,86.1,86.1,86.1s86.1-38.6,86.1-86.1S429.1,309.4,381.6,309.4z M381.6,27.1
		c32.6,0,59.1,26.5,59.1,59.1s-26.5,59.1-59.1,59.1s-59.1-26.5-59.1-59.1S349.1,27.1,381.6,27.1z M100,299.8
		c-32.6,0-59.1-26.5-59.1-59.1s26.5-59.1,59.1-59.1s59.1,26.5,59.1,59.1S132.5,299.8,100,299.8z M381.6,454.5
		c-32.6,0-59.1-26.5-59.1-59.1c0-32.6,26.5-59.1,59.1-59.1s59.1,26.5,59.1,59.1C440.7,428,414.2,454.5,381.6,454.5z" />
		</symbol>

		<symbol id="fb" viewBox="0 0 430.113 430.114">
			<title>fb</title>
			<path d="M158.081,83.3c0,10.839,0,59.218,0,59.218h-43.385v72.412h43.385v215.183h89.122V214.936h59.805
		c0,0,5.601-34.721,8.316-72.685c-7.784,0-67.784,0-67.784,0s0-42.127,0-49.511c0-7.4,9.717-17.354,19.321-17.354
		c9.586,0,29.818,0,48.557,0c0-9.859,0-43.924,0-75.385c-25.016,0-53.476,0-66.021,0C155.878-0.004,158.081,72.48,158.081,83.3z" />
		</symbol>
		
		<symbol id="pt" viewBox="0 0 100.001 100.001">
			<title>pt</title>
			<path d="M43.081,66.14c-2.626,13.767-5.833,26.966-15.333,33.861c-2.932-20.809,4.307-36.436,7.668-53.027
		c-5.73-9.646,0.689-29.062,12.777-24.277c14.873,5.885-12.881,35.865,5.75,39.611c19.453,3.908,27.395-33.752,15.332-46
		C51.847-1.376,18.542,15.905,22.638,41.224c0.996,6.191,7.391,8.068,2.555,16.611c-11.154-2.473-14.484-11.27-14.055-23
		c0.69-19.197,17.25-32.639,33.86-34.498c21.006-2.352,40.721,7.711,43.443,27.471c3.066,22.303-9.48,46.459-31.943,44.721
		C50.41,72.056,47.853,69.04,43.081,66.14z"/>
		</symbol>
		
		
		<symbol id="tw" viewBox="0 0 512 512">
			<title>tw</title>
			<path d="M512,97.248c-19.04,8.352-39.328,13.888-60.48,16.576c21.76-12.992,38.368-33.408,46.176-58.016
			c-20.288,12.096-42.688,20.64-66.56,25.408C411.872,60.704,384.416,48,354.464,48c-58.112,0-104.896,47.168-104.896,104.992
			c0,8.32,0.704,16.32,2.432,23.936c-87.264-4.256-164.48-46.08-216.352-109.792c-9.056,15.712-14.368,33.696-14.368,53.056
			c0,36.352,18.72,68.576,46.624,87.232c-16.864-0.32-33.408-5.216-47.424-12.928c0,0.32,0,0.736,0,1.152
			c0,51.008,36.384,93.376,84.096,103.136c-8.544,2.336-17.856,3.456-27.52,3.456c-6.72,0-13.504-0.384-19.872-1.792
			c13.6,41.568,52.192,72.128,98.08,73.12c-35.712,27.936-81.056,44.768-130.144,44.768c-8.608,0-16.864-0.384-25.12-1.44
			C46.496,446.88,101.6,464,161.024,464c193.152,0,298.752-160,298.752-298.688c0-4.64-0.16-9.12-0.384-13.568
			C480.224,136.96,497.728,118.496,512,97.248z" />
		</symbol>
		<symbol id="gp" viewBox="0 0 491.858 491.858">
			<title>gp</title>
			<g>
				<path d="M377.472,224.957H201.319v58.718H308.79c-16.032,51.048-63.714,88.077-120.055,88.077
				c-69.492,0-125.823-56.335-125.823-125.824c0-69.492,56.333-125.823,125.823-125.823c34.994,0,66.645,14.289,89.452,37.346
				l42.622-46.328c-34.04-33.355-80.65-53.929-132.074-53.929C84.5,57.193,0,141.693,0,245.928s84.5,188.737,188.736,188.737
				c91.307,0,171.248-64.844,188.737-150.989v-58.718L377.472,224.957L377.472,224.957z" />
				<polygon points="491.858,224.857 455.827,224.857 455.827,188.826 424.941,188.826 424.941,224.857 388.91,224.857 
				388.91,255.74 424.941,255.74 424.941,291.772 455.827,291.772 455.827,255.74 491.858,255.74 			" />
			</g>
		</symbol>
		<symbol id="in" viewBox="0 0 430.117 430.117">
			<title>in</title>
			<path d="M430.117,261.543V420.56h-92.188V272.193c0-37.271-13.334-62.707-46.703-62.707
		c-25.473,0-40.632,17.142-47.301,33.724c-2.432,5.928-3.058,14.179-3.058,22.477V420.56h-92.219c0,0,1.242-251.285,0-277.32h92.21
		v39.309c-0.187,0.294-0.43,0.611-0.606,0.896h0.606v-0.896c12.251-18.869,34.13-45.824,83.102-45.824
		C384.633,136.724,430.117,176.361,430.117,261.543z M52.183,9.558C20.635,9.558,0,30.251,0,57.463
		c0,26.619,20.038,47.94,50.959,47.94h0.616c32.159,0,52.159-21.317,52.159-47.94C103.128,30.251,83.734,9.558,52.183,9.558z
		 M5.477,420.56h92.184v-277.32H5.477V420.56z" />
		</symbol>
		<symbol id="envelope" viewBox="0 0 483.3 483.3">
			<title>envelope</title>
			<g>
				<path d="M424.3,57.75H59.1c-32.6,0-59.1,26.5-59.1,59.1v249.6c0,32.6,26.5,59.1,59.1,59.1h365.1c32.6,0,59.1-26.5,59.1-59.1
			v-249.5C483.4,84.35,456.9,57.75,424.3,57.75z M456.4,366.45c0,17.7-14.4,32.1-32.1,32.1H59.1c-17.7,0-32.1-14.4-32.1-32.1v-249.5
			c0-17.7,14.4-32.1,32.1-32.1h365.1c17.7,0,32.1,14.4,32.1,32.1v249.5H456.4z" />
				<path d="M304.8,238.55l118.2-106c5.5-5,6-13.5,1-19.1c-5-5.5-13.5-6-19.1-1l-163,146.3l-31.8-28.4c-0.1-0.1-0.2-0.2-0.2-0.3
			c-0.7-0.7-1.4-1.3-2.2-1.9L78.3,112.35c-5.6-5-14.1-4.5-19.1,1.1c-5,5.6-4.5,14.1,1.1,19.1l119.6,106.9L60.8,350.95
			c-5.4,5.1-5.7,13.6-0.6,19.1c2.7,2.8,6.3,4.3,9.9,4.3c3.3,0,6.6-1.2,9.2-3.6l120.9-113.1l32.8,29.3c2.6,2.3,5.8,3.4,9,3.4
			c3.2,0,6.5-1.2,9-3.5l33.7-30.2l120.2,114.2c2.6,2.5,6,3.7,9.3,3.7c3.6,0,7.1-1.4,9.8-4.2c5.1-5.4,4.9-14-0.5-19.1L304.8,238.55z" />
			</g>
		</symbol>

		<symbol id="notification" viewBox="0 0 19 22">
			<title>notification</title>
			<path d="M1748.49,48.256q-4.4,0-8.78,0a0.618,0.618,0,0,1-.66-0.243,0.642,0.642,0,0,1,.14-0.679c0.45-.721.89-1.452,1.35-2.172a7.968,7.968,0,0,0,1.29-4.488,13.355,13.355,0,0,1,.15-3.341,6.383,6.383,0,0,1,4.23-4.725,0.475,0.475,0,0,0,.39-0.553c-0.02-.443-0.01-0.889.01-1.332a1.883,1.883,0,0,1,3.75-.042c0.03,0.486.03,0.974,0.02,1.461a0.383,0.383,0,0,0,.31.437,6.457,6.457,0,0,1,4.47,6.2,22.569,22.569,0,0,0,.1,3.389,7.274,7.274,0,0,0,.96,2.616c0.52,0.853,1.04,1.7,1.57,2.546a0.637,0.637,0,0,1,.14.678,0.624,0.624,0,0,1-.66.245C1754.34,48.255,1751.42,48.256,1748.49,48.256Zm-2.94.949h5.85a3.146,3.146,0,0,1-2.71,1.8A3.286,3.286,0,0,1,1745.55,49.205Z" transform="translate(-1739 -29)" />
		</symbol>

		<symbol id="message"  viewBox="0 0 512 512">
			<title>message</title>
		<path d="M467,61H45C20.218,61,0,81.196,0,106v300c0,24.72,20.128,45,45,45h422c24.72,0,45-20.128,45-45V106
			C512,81.28,491.872,61,467,61z M460.786,91L256.954,294.833L51.359,91H460.786z M30,399.788V112.069l144.479,143.24L30,399.788z
			 M51.213,421l144.57-144.57l50.657,50.222c5.864,5.814,15.327,5.795,21.167-0.046L317,277.213L460.787,421H51.213z M482,399.787
			L338.213,256L482,112.212V399.787z"/>
		</symbol>

		<symbol id="manage-shop" viewBox="0 0 22.25 19.5">
			<title>manage-shop</title>
			<path d="M255.407,178.9l-4.489-6.731a1.259,1.259,0,0,0-.816-0.408,0.928,0.928,0,0,0-.816.408L244.8,178.9h-4.9a0.964,0.964,0,0,0-1.02,1.02v0.306l2.55,9.485a2.081,2.081,0,0,0,1.939,1.53h13.262a1.966,1.966,0,0,0,1.938-1.53l2.551-9.485v-0.306a0.964,0.964,0,0,0-1.02-1.02h-4.693Zm-8.366,0,3.061-4.487,3.061,4.487h-6.122Zm3.061,8.159a2.04,2.04,0,1,1,2.04-2.039A2.046,2.046,0,0,1,250.1,187.058Z" transform="translate(-238.875 -171.75)" />
		</symbol>
		<symbol id="my-sales" viewBox="0 0 405.333 405.333">
			<title>my-sales</title>
			<g>
				<rect y="202.677" style="fill:#50C8EF;" width="101.333" height="101.333" />
				<rect x="151.979" y="101.344" style="fill:#50C8EF;" width="101.333" height="202.667" />
				<rect x="304" y="0.011" style="fill:#50C8EF;" width="101.333" height="304" />
				<rect y="354.656" style="fill:#50C8EF;" width="405.333" height="50.667" />
			</g>
		</symbol>
		<symbol id="Credits" viewBox="0 0 64 43">
			<title>Credits</title>
			<path fill="#ff3a59" d="M737,313.6v-3.071A5.54,5.54,0,0,0,731.461,305H678.539A5.54,5.54,0,0,0,673,310.529V313.6h64Zm-20.923,19.657a1.843,1.843,0,1,0,1.846,1.843A1.847,1.847,0,0,0,716.077,333.257ZM673,317.286h64v3.685H673v-3.685Zm0,7.371v17.814A5.54,5.54,0,0,0,678.539,348h52.922A5.54,5.54,0,0,0,737,342.471V324.657H673Zm17.231,12.286h-7.385a1.843,1.843,0,1,1,0-3.686h7.385A1.843,1.843,0,1,1,690.231,336.943Zm33.23,3.685a5.524,5.524,0,0,1-3.692-1.412,5.529,5.529,0,1,1,0-8.232A5.532,5.532,0,1,1,723.461,340.628Zm0-7.371a1.843,1.843,0,1,0,1.847,1.843A1.847,1.847,0,0,0,723.461,333.257Z" transform="translate(-673 -305)" />
		</symbol>
		<symbol id="order" viewBox="0 0 60 53">
			<title>order</title>
			<path fill="#fcac2d" d="M1048.13,299.175a22.7,22.7,0,0,0-2.68,4.084,0.77,0.77,0,0,1-1.17.406c-0.97-.339-2-0.5-2.94-0.9-1.23-.511-1.45-0.051-1.45,1.116,0.03,8.943.02,17.887,0.02,26.831,0,3.544.03,7.09-.02,10.634-0.01,1.05.22,1.345,1.28,1.016q8.43-2.612,16.87-5.108a1.356,1.356,0,0,0,1.1-1.634c-0.05-2.944.02-5.89-.04-8.834-0.02-1.123.08-1.844,1.5-1.762a6.751,6.751,0,0,0,2.52-.5c1.2-.42,1.44,0,1.42,1.163-0.06,4.143-.01,8.289-0.03,12.433-0.01,2.161-.57,2.938-2.61,3.561-7.78,2.379-15.57,4.732-23.36,7.117a4.133,4.133,0,0,1-2.53-.011q-11.745-3.6-23.52-7.133a3.1,3.1,0,0,1-2.49-3.315q0.015-15.868,0-31.739a2.97,2.97,0,0,1,2.39-3.217c1.92-.525,3.83-1.112,5.71-1.769,1.2-.417,1.45-0.049,1.43,1.134-0.06,3.38.03,6.764-.05,10.143-0.03,1.317.37,1.655,1.58,1.256a16.575,16.575,0,0,1,2.05-.427c2.44-.47,2.44-0.469,2.44-2.873,0-3.381.03-6.763-.02-10.143a1.46,1.46,0,0,1,1.24-1.714c3.17-.881,6.32-1.838,9.47-2.787a2.5,2.5,0,0,1,1.42-.169C1041.11,297.056,1044.54,298.1,1048.13,299.175Zm0.27,10.659a10.8,10.8,0,1,1,21.6-.068A10.8,10.8,0,1,1,1048.4,309.834Zm9.36,4.276a4.066,4.066,0,0,0,.55-0.37q2.91-2.93,5.81-5.875a0.589,0.589,0,0,0,.18-0.823c-0.82-1.511-1.81-1.691-3.01-.48-0.76.768-1.58,1.481-2.26,2.32-0.82,1.025-1.53,1.23-2.34.044-0.55-.8-0.99-0.763-1.76-0.069-1.06.966-1.12,1.62,0.02,2.513a24.451,24.451,0,0,1,2.07,2.054C1057.24,313.648,1057.48,313.854,1057.76,314.11Z" transform="translate(-1010 -296)" />
		</symbol>
		<symbol id="sold" viewBox="0 0 59 57">
			<title>sold</title>
			<path fill="#6253f5" d="M1360.16,292a15.1,15.1,0,0,1,14.86,11.9c0.04,0.164-.04.42,0.19,0.469a0.568,0.568,0,0,0,.43-0.3c1.16-1.138,2.31-2.28,3.47-3.423a6.008,6.008,0,0,1,4.13-1.729c3.87-.176,7.75-0.387,11.63-0.574,2.1-.1,4.2-0.212,6.3-0.268a2.564,2.564,0,0,1,2.83,2.786c-0.16,3.564-.38,7.126-0.56,10.69-0.11,2.053-.26,4.108-0.27,6.163a7.24,7.24,0,0,1-2.37,5.479c-8.42,8.217-16.77,16.5-25.14,24.765a3.08,3.08,0,0,1-2.14,1.045,2.867,2.867,0,0,1-2.18-.923q-7.935-7.835-15.88-15.664c-0.72-.713-1.45-1.423-2.17-2.14a2.689,2.689,0,0,1-.03-4.125c1.32-1.327,2.66-2.627,3.99-3.944a0.528,0.528,0,0,0,.3-0.422c-0.06-.214-0.31-0.146-0.48-0.182a14.936,14.936,0,0,1,1.07-29.489A19.944,19.944,0,0,1,1360.16,292Zm0.08,2.512a12.416,12.416,0,1,0-.03,24.828A12.414,12.414,0,1,0,1360.24,294.51Zm5.97,34.831a1.1,1.1,0,0,0,1.58,1.064,2.25,2.25,0,0,0,.67-0.521q8.055-7.94,16.1-15.881a3.389,3.389,0,0,0,.47-0.552,1.121,1.121,0,0,0-1.66-1.469,6.3,6.3,0,0,0-.49.455q-3.42,3.381-6.85,6.762l-9.24,9.116A1.337,1.337,0,0,0,1366.21,329.341Zm5.94,5.877a1.707,1.707,0,0,0,.98-0.585q5.625-5.56,11.27-11.12a2.1,2.1,0,0,0,.35-0.413,1.111,1.111,0,0,0-.81-1.7,1.351,1.351,0,0,0-1.18.517q-5.64,5.562-11.27,11.119a2.052,2.052,0,0,0-.48.622A1.157,1.157,0,0,0,1372.15,335.218ZM1358.36,312.8a1.257,1.257,0,0,1-.98-0.419c-1.89-1.9-3.79-3.793-5.67-5.706a1.236,1.236,0,0,1,0-1.837,1.267,1.267,0,0,1,1.82.061c1.45,1.42,2.91,2.839,4.3,4.312,0.46,0.483.68,0.4,1.09-.011,2.53-2.527,5.08-5.027,7.63-7.539a1.65,1.65,0,0,1,1.09-.6,1.212,1.212,0,0,1,1.15.565,1.105,1.105,0,0,1,.04,1.306,4.487,4.487,0,0,1-.55.648c-2.88,2.856-5.78,5.707-8.67,8.559A1.627,1.627,0,0,1,1358.36,312.8Z" transform="translate(-1345 -292)" />
		</symbol>
		<symbol id="messages" viewBox="0 0 65 53">
			<title>messages</title>
			<path fill="#4dc471" d="M1743.18,293h-44.6a4.847,4.847,0,0,0-4.82,4.84v27.844a4.847,4.847,0,0,0,4.82,4.84h30.75l6.95,7.051a1.5,1.5,0,0,0,1.07.478,1.538,1.538,0,0,0,1.55-1.554v-5.975h4.28a4.847,4.847,0,0,0,4.82-4.84V297.84A4.847,4.847,0,0,0,1743.18,293Zm-37.76,23.96a4.481,4.481,0,1,1,4.46-4.481A4.5,4.5,0,0,1,1705.42,316.96Zm15.64,0a4.481,4.481,0,1,1,4.46-4.481A4.5,4.5,0,0,1,1721.06,316.96Zm15.58,0a4.481,4.481,0,1,1,4.46-4.481A4.5,4.5,0,0,1,1736.64,316.96Zm-45.61,8.844v-9.5h-4.88a3.182,3.182,0,0,0-3.15,3.167v18.284a3.136,3.136,0,0,0,3.15,3.286h2.8v3.944a1.04,1.04,0,0,0,1.01,1.016,0.991,0.991,0,0,0,.71-0.3l4.58-4.6h20.22a3.182,3.182,0,0,0,3.15-3.167v-4.541h-20.04A7.581,7.581,0,0,1,1691.03,325.8Z" transform="translate(-1683 -293)" />
		</symbol>
		<symbol id="icn-signup" viewBox="0 0 87.75 82.5">
			<title>Sign Up</title>
			<path id="Forma_1_copy_2" data-name="Forma 1 copy 2" class="cls-1" d="M647,500a2,2,0,0,1,2,2v10a2,2,0,0,1-4,0V502A2,2,0,0,1,647,500Zm-5,5h10a2,2,0,0,1,0,4H642A2,2,0,0,1,642,505Zm2.273-9a38.243,38.243,0,1,0-62.311,38.946,10.676,10.676,0,0,1,1.128-.714l11.861-6.47a3.347,3.347,0,0,0,1.743-2.937v-4.341a28.185,28.185,0,0,1-4.64-9.583,5.458,5.458,0,0,1-2.01-4.232v-5.317a5.467,5.467,0,0,1,1.331-3.554v-7A12.1,12.1,0,0,1,594.2,482c2.765-3.155,7.239-4.752,13.3-4.752s10.536,1.6,13.3,4.753a12.1,12.1,0,0,1,2.825,8.8v7a5.458,5.458,0,0,1,1.33,3.553v5.318a5.444,5.444,0,0,1-3.127,4.933,30.578,30.578,0,0,1-3.924,7.685c-0.321.451-.632,0.862-0.926,1.225v4.436a3.325,3.325,0,0,0,1.848,2.989l12.7,6.35a11.338,11.338,0,0,1,1.339.805A38.345,38.345,0,0,0,643.969,518h3.138a41.311,41.311,0,0,1-11.868,19l0.041,0.034-1.373,1.146c-0.136.116-.286,0.213-0.426,0.326-0.628.511-1.275,1-1.933,1.474-0.275.2-.546,0.4-0.824,0.587-0.771.528-1.564,1.024-2.371,1.5-0.219.129-.438,0.255-0.659,0.379q-1.329.75-2.716,1.4c-0.114.054-.23,0.1-0.344,0.156a40.881,40.881,0,0,1-9.835,3.083c-0.093.018-.188,0.034-0.281,0.051-1.075.184-2.164,0.33-3.267,0.43-0.139.012-.279,0.02-0.418,0.032-1.1.088-2.21,0.147-3.333,0.147s-2.253-.059-3.36-0.15c-0.137-.012-0.272-0.02-0.407-0.032-1.111-.1-2.209-0.25-3.295-0.438l-0.276-.049a40.89,40.89,0,0,1-9.977-3.158c-0.07-.033-0.142-0.063-0.213-0.1-0.961-.453-1.9-0.946-2.82-1.47-0.184-.105-0.369-0.21-0.552-0.318q-1.26-.744-2.463-1.572c-0.247-.171-0.49-0.346-0.733-0.522-0.75-.541-1.487-1.1-2.2-1.69-0.087-.072-0.181-0.132-0.268-0.206l-1.338-1.128,0.039-.034A41.239,41.239,0,1,1,647.391,496h-3.118Zm-59.692,41.1c0.654,0.49,1.326.954,2.007,1.4q0.324,0.212.653,0.419c0.739,0.462,1.489.9,2.256,1.314,0.108,0.058.219,0.112,0.328,0.169,0.84,0.437,1.691.851,2.558,1.224l0.019,0.009q1.375,0.59,2.793,1.07l0.177,0.06a38.12,38.12,0,0,0,5.835,1.456l0.126,0.023c0.938,0.153,1.884.265,2.835,0.349,0.162,0.015.326,0.026,0.489,0.038,0.944,0.07,1.892.117,2.843,0.117s1.876-.045,2.808-0.116c0.168-.012.334-0.022,0.5-0.037,0.942-.083,1.881-0.192,2.812-0.344l0.081-.015c0.99-.163,1.974-0.363,2.946-0.6h0.009q1.444-.359,2.856-0.828c0.065-.021.128-0.044,0.191-0.065a38.124,38.124,0,0,0,5.232-2.214c0.163-.084.327-0.165,0.489-0.25,0.735-.39,1.455-0.807,2.163-1.245,0.253-.158.5-0.32,0.75-0.482,0.541-.352,1.075-0.721,1.6-1.1,0.162-.117.327-0.23,0.488-0.351-0.08-.042-0.159-0.084-0.24-0.125l-12.7-6.349a6.307,6.307,0,0,1-3.507-5.673V519.4l0.372-.424c0.329-.377.711-0.869,1.1-1.424a27.743,27.743,0,0,0,3.744-7.548l0.24-.742,0.746-.23a2.5,2.5,0,0,0,1.771-2.362v-5.318a2.454,2.454,0,0,0-.835-1.834l-0.5-.447,0.013-8.552a9.182,9.182,0,0,0-2.119-6.571c-2.175-2.454-5.88-3.7-11.019-3.7-5.159,0-8.876,1.255-11.045,3.727a9.038,9.038,0,0,0-2.094,6.54l0.014,0.2v8.355l-0.5.447a2.449,2.449,0,0,0-.836,1.834v5.318a2.486,2.486,0,0,0,1.154,2.088l0.511,0.331,0.137,0.594a25.03,25.03,0,0,0,4.5,9.324l0.345,0.417,0,5.4a6.343,6.343,0,0,1-3.308,5.571l-11.86,6.47-0.144.081C584.449,537,584.514,537.052,584.581,537.1Z" transform="translate(-566.25 -465.25)" />
		</symbol>
		<symbol id="icn-signin" viewBox="0 0 82.5 82.5">
			<title>Sign In</title>
			<path id="Forma_1" data-name="Forma 1" class="cls-1" d="M1349.75,506.5a41.25,41.25,0,1,0-69.11,30.387l-0.04.034,1.34,1.128c0.08,0.074.18,0.134,0.27,0.206,0.71,0.589,1.44,1.149,2.19,1.69,0.25,0.176.49,0.351,0.74,0.522q1.2,0.828,2.46,1.572c0.18,0.108.37,0.213,0.55,0.318,0.92,0.524,1.86,1.017,2.82,1.47,0.07,0.033.14,0.063,0.22,0.1a40.756,40.756,0,0,0,9.97,3.158c0.09,0.016.18,0.033,0.28,0.049,1.08,0.188,2.18.338,3.29,0.438,0.14,0.012.27,0.02,0.41,0.032,1.11,0.091,2.23.15,3.36,0.15s2.23-.059,3.33-0.147c0.14-.012.28-0.02,0.42-0.032,1.1-.1,2.19-0.246,3.27-0.43,0.09-.017.19-0.033,0.28-0.051a40.871,40.871,0,0,0,9.83-3.083c0.12-.052.23-0.1,0.35-0.156,0.92-.435,1.83-0.9,2.71-1.4q0.33-.186.66-0.379c0.81-.476,1.6-0.972,2.37-1.5,0.28-.189.55-0.389,0.83-0.587,0.66-.474,1.3-0.963,1.93-1.474,0.14-.113.29-0.21,0.43-0.326l1.37-1.146-0.04-.034A41.161,41.161,0,0,0,1349.75,506.5Zm-79.5,0a38.25,38.25,0,1,1,63.62,28.594,11.6,11.6,0,0,0-1.34-.805l-12.7-6.35a3.326,3.326,0,0,1-1.85-2.989v-4.436c0.29-.363.6-0.774,0.92-1.225a30.333,30.333,0,0,0,3.93-7.685,5.447,5.447,0,0,0,3.13-4.933v-5.318a5.432,5.432,0,0,0-1.34-3.553v-7a12.07,12.07,0,0,0-2.82-8.8c-2.76-3.156-7.24-4.753-13.3-4.753s-10.54,1.6-13.3,4.752a12.145,12.145,0,0,0-2.83,8.8v7a5.477,5.477,0,0,0-1.33,3.554v5.317a5.486,5.486,0,0,0,2.01,4.232,28.357,28.357,0,0,0,4.64,9.583v4.341a3.334,3.334,0,0,1-1.74,2.937l-11.86,6.47a11.014,11.014,0,0,0-1.13.714A38.151,38.151,0,0,1,1270.25,506.5Zm60.69,30.948c-0.53.381-1.06,0.75-1.6,1.1-0.25.162-.5,0.324-0.75,0.482-0.71.438-1.43,0.855-2.17,1.245-0.16.085-.32,0.166-0.48,0.25a38.013,38.013,0,0,1-5.24,2.214c-0.06.021-.12,0.044-0.19,0.065q-1.41.468-2.85,0.828h-0.01c-0.97.24-1.96,0.44-2.95,0.6a0.776,0.776,0,0,1-.08.015c-0.93.152-1.87,0.261-2.81,0.344-0.17.015-.33,0.025-0.5,0.037-0.93.071-1.87,0.116-2.81,0.116s-1.9-.047-2.84-0.117c-0.17-.012-0.33-0.023-0.49-0.038-0.95-.084-1.9-0.2-2.84-0.349l-0.12-.023a37.95,37.95,0,0,1-5.84-1.456c-0.06-.02-0.12-0.041-0.17-0.06-0.95-.321-1.88-0.677-2.8-1.07a0.036,0.036,0,0,0-.02-0.009c-0.86-.373-1.71-0.787-2.55-1.224-0.11-.057-0.23-0.111-0.33-0.169-0.77-.41-1.52-0.852-2.26-1.314-0.22-.138-0.44-0.278-0.65-0.419-0.68-.445-1.35-0.909-2.01-1.4-0.07-.051-0.13-0.1-0.2-0.156l0.15-.081,11.86-6.47a6.336,6.336,0,0,0,3.3-5.571v-5.4l-0.34-.417a24.832,24.832,0,0,1-4.5-9.324l-0.14-.594-0.51-.331a2.5,2.5,0,0,1-1.16-2.088V501.35a2.453,2.453,0,0,1,.84-1.834l0.49-.447v-8.355l-0.01-.2a9.031,9.031,0,0,1,2.1-6.54c2.16-2.472,5.88-3.727,11.04-3.727,5.14,0,8.84,1.245,11.02,3.7a9.191,9.191,0,0,1,2.12,6.571l-0.02,8.552,0.5,0.447a2.452,2.452,0,0,1,.84,1.834v5.318a2.5,2.5,0,0,1-1.78,2.362l-0.74.23-0.24.742a27.873,27.873,0,0,1-3.75,7.548,17.512,17.512,0,0,1-1.1,1.424l-0.37.424v5.549a6.3,6.3,0,0,0,3.51,5.673l12.7,6.349,0.24,0.125C1331.27,537.218,1331.1,537.331,1330.94,537.448Z" transform="translate(-1267.25 -465.25)" />
		</symbol>
		<symbol id="refresh" viewBox="0 0 16 16">
			<title>refresh</title>
			<g>
				<path d="M2.083,9H0.062H0v5l1.481-1.361C2.932,14.673,5.311,16,8,16c4.08,0,7.446-3.054,7.938-7h-2.021
		c-0.476,2.838-2.944,5-5.917,5c-2.106,0-3.96-1.086-5.03-2.729L5.441,9H2.083z" />
				<path d="M8,0C3.92,0,0.554,3.054,0.062,7h2.021C2.559,4.162,5.027,2,8,2c2.169,0,4.07,1.151,5.124,2.876
		L11,7h2h0.917h2.021H16V2l-1.432,1.432C13.123,1.357,10.72,0,8,0z" />
			</g>
		</symbol>
		<symbol id="cross" viewBox="0 0 15.642 15.642">
			<title>cross</title>
			<path fill-rule="evenodd" d="M8.882,7.821l6.541-6.541c0.293-0.293,0.293-0.768,0-1.061  c-0.293-0.293-0.768-0.293-1.061,0L7.821,6.76L1.28,0.22c-0.293-0.293-0.768-0.293-1.061,0c-0.293,0.293-0.293,0.768,0,1.061  l6.541,6.541L0.22,14.362c-0.293,0.293-0.293,0.768,0,1.061c0.147,0.146,0.338,0.22,0.53,0.22s0.384-0.073,0.53-0.22l6.541-6.541  l6.541,6.541c0.147,0.146,0.338,0.22,0.53,0.22c0.192,0,0.384-0.073,0.53-0.22c0.293-0.293,0.293-0.768,0-1.061L8.882,7.821z" />
		</symbol>
		<symbol id="tick" viewBox="0 0 191.667 191.667">
			<title>tick</title>
			<path d="M95.833,0C42.991,0,0,42.99,0,95.833s42.991,95.834,95.833,95.834s95.833-42.991,95.833-95.834S148.676,0,95.833,0z
	 M150.862,79.646l-60.207,60.207c-2.56,2.56-5.963,3.969-9.583,3.969c-3.62,0-7.023-1.409-9.583-3.969l-30.685-30.685
	c-2.56-2.56-3.97-5.963-3.97-9.583c0-3.621,1.41-7.024,3.97-9.584c2.559-2.56,5.962-3.97,9.583-3.97c3.62,0,7.024,1.41,9.583,3.971
	l21.101,21.1l50.623-50.623c2.56-2.56,5.963-3.969,9.583-3.969c3.62,0,7.023,1.409,9.583,3.969
	C156.146,65.765,156.146,74.362,150.862,79.646z" />
		</symbol>
		<symbol id="bin" viewBox="0 0 486.4 486.4">
			<title>bin</title>
			<g>
				<path d="M446,70H344.8V53.5c0-29.5-24-53.5-53.5-53.5h-96.2c-29.5,0-53.5,24-53.5,53.5V70H40.4c-7.5,0-13.5,6-13.5,13.5
			S32.9,97,40.4,97h24.4v317.2c0,39.8,32.4,72.2,72.2,72.2h212.4c39.8,0,72.2-32.4,72.2-72.2V97H446c7.5,0,13.5-6,13.5-13.5
			S453.5,70,446,70z M168.6,53.5c0-14.6,11.9-26.5,26.5-26.5h96.2c14.6,0,26.5,11.9,26.5,26.5V70H168.6V53.5z M394.6,414.2
			c0,24.9-20.3,45.2-45.2,45.2H137c-24.9,0-45.2-20.3-45.2-45.2V97h302.9v317.2H394.6z" />
				<path d="M243.2,411c7.5,0,13.5-6,13.5-13.5V158.9c0-7.5-6-13.5-13.5-13.5s-13.5,6-13.5,13.5v238.5
			C229.7,404.9,235.7,411,243.2,411z" />
				<path d="M155.1,396.1c7.5,0,13.5-6,13.5-13.5V173.7c0-7.5-6-13.5-13.5-13.5s-13.5,6-13.5,13.5v208.9
			C141.6,390.1,147.7,396.1,155.1,396.1z" />
				<path d="M331.3,396.1c7.5,0,13.5-6,13.5-13.5V173.7c0-7.5-6-13.5-13.5-13.5s-13.5,6-13.5,13.5v208.9
			C317.8,390.1,323.8,396.1,331.3,396.1z" />
			</g>

		</symbol>
		<symbol id="up-arrow" viewBox="0 0 444.819 444.819">
			<title>up-arrow</title>
			<g>
		<path fill="#fff" d="M433.968,278.657L248.387,92.79c-7.419-7.044-16.08-10.566-25.977-10.566c-10.088,0-18.652,3.521-25.697,10.566
		L10.848,278.657C3.615,285.887,0,294.549,0,304.637c0,10.28,3.619,18.843,10.848,25.693l21.411,21.413
		c6.854,7.23,15.42,10.852,25.697,10.852c10.278,0,18.842-3.621,25.697-10.852L222.41,213.271L361.168,351.74
		c6.848,7.228,15.413,10.852,25.7,10.852c10.082,0,18.747-3.624,25.975-10.852l21.409-21.412
		c7.043-7.043,10.567-15.608,10.567-25.693C444.819,294.545,441.205,285.884,433.968,278.657z" />
	</g>
		</symbol>
		<symbol id="test" viewBox="0 0 78.84 172.22">
			<title>test</title>
			<path d="M1923.78,3661.23l26.91,70.87a40.508,40.508,0,0,0,52.3,23.47l53.22-20.25a40.6,40.6,0,0,0,23.53-52.32l-26.91-70.87a40.519,40.519,0,0,0-52.31-23.47l-53.21,20.25A40.583,40.583,0,0,0,1923.78,3661.23Z" transform="translate(-1921.16 -3586)" />
		</symbol>
		<symbol id="test" viewBox="0 0 78.84 172.22">
			<title>test</title>
			<path d="M1923.78,3661.23l26.91,70.87a40.508,40.508,0,0,0,52.3,23.47l53.22-20.25a40.6,40.6,0,0,0,23.53-52.32l-26.91-70.87a40.519,40.519,0,0,0-52.31-23.47l-53.21,20.25A40.583,40.583,0,0,0,1923.78,3661.23Z" transform="translate(-1921.16 -3586)" />
		</symbol>
		<symbol id="test" viewBox="0 0 78.84 172.22">
			<title>test</title>
			<path d="M1923.78,3661.23l26.91,70.87a40.508,40.508,0,0,0,52.3,23.47l53.22-20.25a40.6,40.6,0,0,0,23.53-52.32l-26.91-70.87a40.519,40.519,0,0,0-52.31-23.47l-53.21,20.25A40.583,40.583,0,0,0,1923.78,3661.23Z" transform="translate(-1921.16 -3586)" />
		</symbol>
		<symbol id="test" viewBox="0 0 78.84 172.22">
			<title>test</title>
			<path d="M1923.78,3661.23l26.91,70.87a40.508,40.508,0,0,0,52.3,23.47l53.22-20.25a40.6,40.6,0,0,0,23.53-52.32l-26.91-70.87a40.519,40.519,0,0,0-52.31-23.47l-53.21,20.25A40.583,40.583,0,0,0,1923.78,3661.23Z" transform="translate(-1921.16 -3586)" />
		</symbol>
		<symbol id="test" viewBox="0 0 78.84 172.22">
			<title>test</title>
			<path d="M1923.78,3661.23l26.91,70.87a40.508,40.508,0,0,0,52.3,23.47l53.22-20.25a40.6,40.6,0,0,0,23.53-52.32l-26.91-70.87a40.519,40.519,0,0,0-52.31-23.47l-53.21,20.25A40.583,40.583,0,0,0,1923.78,3661.23Z" transform="translate(-1921.16 -3586)" />
		</symbol>
		<symbol id="test" viewBox="0 0 78.84 172.22">
			<title>test</title>
			<path d="M1923.78,3661.23l26.91,70.87a40.508,40.508,0,0,0,52.3,23.47l53.22-20.25a40.6,40.6,0,0,0,23.53-52.32l-26.91-70.87a40.519,40.519,0,0,0-52.31-23.47l-53.21,20.25A40.583,40.583,0,0,0,1923.78,3661.23Z" transform="translate(-1921.16 -3586)" />
		</symbol>
		<symbol id="test" viewBox="0 0 78.84 172.22">
			<title>test</title>
			<path d="M1923.78,3661.23l26.91,70.87a40.508,40.508,0,0,0,52.3,23.47l53.22-20.25a40.6,40.6,0,0,0,23.53-52.32l-26.91-70.87a40.519,40.519,0,0,0-52.31-23.47l-53.21,20.25A40.583,40.583,0,0,0,1923.78,3661.23Z" transform="translate(-1921.16 -3586)" />
		</symbol>
		<symbol id="test" viewBox="0 0 78.84 172.22">
			<title>test</title>
			<path d="M1923.78,3661.23l26.91,70.87a40.508,40.508,0,0,0,52.3,23.47l53.22-20.25a40.6,40.6,0,0,0,23.53-52.32l-26.91-70.87a40.519,40.519,0,0,0-52.31-23.47l-53.21,20.25A40.583,40.583,0,0,0,1923.78,3661.23Z" transform="translate(-1921.16 -3586)" />
		</symbol>

	</defs>

</svg>
