<svg xmlns="http://www.w3.org/2000/svg" width="48" height="48" viewBox="0 0 48 48">
  <defs>
    <style>
      .cls-1 {
        fill: #ccc;
        fill-rule: evenodd;
      }
    </style>
  </defs>
  <path id="Forma_1" data-name="Forma 1" class="cls-1" d="M1169,5118.82a23.99,23.99,0,1,0,23.99,23.99A24.015,24.015,0,0,0,1169,5118.82Zm13.26,22.24h0l-6.95,5.02,2.67,8.18a1.088,1.088,0,0,1,.07.4,1.288,1.288,0,0,1-2.05,1.05l-7-5.06-7,5.06a1.288,1.288,0,0,1-2.05-1.05,1.336,1.336,0,0,1,.06-0.4l2.68-8.18-6.95-5.02h0a1.311,1.311,0,0,1-.53-1.05,1.293,1.293,0,0,1,1.29-1.29h8.6l2.66-8.14a1.3,1.3,0,0,1,2.48,0l2.66,8.14h8.6a1.293,1.293,0,0,1,1.29,1.29A1.311,1.311,0,0,1,1182.26,5141.06Z" transform="translate(-1145 -5118.81)"/>
</svg>
