<svg xmlns="http://www.w3.org/2000/svg" width="39" height="49" viewBox="0 0 39 49">
  <defs>
    <style>
      .cls-1 {
        fill: #ccc;
        fill-rule: evenodd;
      }
    </style>
  </defs>
  <path id="Forma_1" data-name="Forma 1" class="cls-1" d="M1509.63,5141.31a1.882,1.882,0,0,0-1.69-.93,8.224,8.224,0,0,0-4.29,1.43,14.4,14.4,0,0,0-4.35,4.87,1.767,1.767,0,0,1-1.19.88v-0.36c0-.26,0-0.56-0.01-0.9v-18.36a3.285,3.285,0,1,0-6.57,0v12.86a0.412,0.412,0,0,1-.41.41,0.419,0.419,0,0,1-.41-0.41v-18.67a3.28,3.28,0,1,0-6.56,0v18.67a0.415,0.415,0,0,1-.83,0v-14.94a2.87,2.87,0,1,0-5.74,0v16.6a0.41,0.41,0,0,1-.82,0v-10.37a2.875,2.875,0,1,0-5.75,0v22.56c0.79,11.6,7.83,13.16,14.61,13.16a14.873,14.873,0,0,0,13.16-7.32c0.32-.52,1.18-1.9,2.21-3.53,2.56-4.07,4.72-7.5,5.03-8.11a10.062,10.062,0,0,1,2.29-3.06,6.6,6.6,0,0,0,1.5-1.99A3.184,3.184,0,0,0,1509.63,5141.31Z" transform="translate(-1471 -5118.81)"/>
</svg>
