<svg xmlns="http://www.w3.org/2000/svg" width="77" height="91" viewBox="0 0 77 91">
  <defs>
    <style>
      .cls-1 {
        fill: #24b26b;
        fill-rule: evenodd;
      }
    </style>
  </defs>
  <path class="cls-1" d="M1000.17,662.033h0.6a17.266,17.266,0,0,0,13.22-5.748c7.22-8.178,6.02-22.2,5.89-23.536-0.47-10.044-5.2-14.85-9.1-17.092A20.747,20.747,0,0,0,1000.69,613h-0.32a20.789,20.789,0,0,0-10.084,2.582c-3.938,2.242-8.738,7.047-9.207,17.167-0.132,1.338-1.332,15.358,5.888,23.536C990.23,660,994.674,661.939,1000.17,662.033ZM986.086,633.22c0-.057.018-0.113,0.018-0.151,0.619-13.511,10.164-14.962,14.256-14.962h0.22c5.06,0.113,13.67,2.186,14.25,14.962a0.348,0.348,0,0,0,.02.151c0.02,0.132,1.33,12.946-4.63,19.692-2.36,2.676-5.51,4-9.66,4.033h-0.19c-4.121-.037-7.29-1.357-9.634-4.033C984.792,646.2,986.067,633.333,986.086,633.22ZM1039,685.287v-0.056c0-.151-0.02-0.3-0.02-0.471-0.11-3.732-.35-12.457-8.49-15.245l-0.19-.057a53.987,53.987,0,0,1-15.56-7.123,2.525,2.525,0,0,0-3.53.622,2.558,2.558,0,0,0,.62,3.542,58.261,58.261,0,0,0,17.12,7.859c4.37,1.564,4.86,6.256,4.99,10.552a3.557,3.557,0,0,0,.02.471,34.263,34.263,0,0,1-.39,5.824c-3.04,1.733-14.95,7.726-33.06,7.726-18.044,0-30.026-6.012-33.083-7.745a32.506,32.506,0,0,1-.393-5.824c0-.15.018-0.3,0.018-0.471,0.132-4.3.619-8.988,4.988-10.552a58.822,58.822,0,0,0,17.121-7.859,2.549,2.549,0,0,0,.619-3.542,2.522,2.522,0,0,0-3.526-.622,53.409,53.409,0,0,1-15.564,7.123c-0.075.019-.131,0.038-0.187,0.057-8.139,2.807-8.382,11.532-8.5,15.245a3.759,3.759,0,0,1-.019.471v0.056c-0.018.98-.037,6.012,0.957,8.537a2.409,2.409,0,0,0,.975,1.187c0.562,0.377,14.045,9.008,36.6,9.008s36.05-8.65,36.61-9.008a2.47,2.47,0,0,0,.97-1.187C1039.04,691.3,1039.02,686.267,1039,685.287Z" transform="translate(-962 -613)"/>
</svg>
